<svg id="Group_167" data-name="Group 167" xmlns="http://www.w3.org/2000/svg" xmlns:xlink="http://www.w3.org/1999/xlink" width="156.609" height="88" viewBox="0 0 156.609 88">
  <defs>
    <clipPath id="clip-path">
      <rect id="Rectangle_231" data-name="Rectangle 231" width="156.609" height="88" fill="none"/>
    </clipPath>
  </defs>
  <g id="Group_166" data-name="Group 166" transform="translate(0 0)" clip-path="url(#clip-path)">
    <path id="Path_2662" data-name="Path 2662" d="M70.929,52.453a6.669,6.669,0,0,0,6.661,6.66h25.272V40.138H70.929Zm7.312-9.337H95.614V56.135H78.241Z" transform="translate(-5.678 -3.213)" fill="#302d2c"/>
    <path id="Path_2663" data-name="Path 2663" d="M42.282,6.659H35.061V39.668a34.47,34.47,0,0,1-5.617,2.414A83.229,83.229,0,0,1,18.636,44.85V38.2c5.926-1.055,9.888-5.154,9.888-10.262,0-6-5.5-10.519-12.786-10.519S2.951,21.939,2.951,27.936c0,4.885,3.742,8.935,9.338,10.144V45.7a74.258,74.258,0,0,1-8.364.464H0v3.921H3.306c2.414-.037,4.993-.205,7.668-.5a72.949,72.949,0,0,0,8.076-1.354A86.8,86.8,0,0,0,29.7,44.86l.27-.114A55.955,55.955,0,0,0,35.061,42.4V56.445h7.221V28.825h9.239V25.694H42.282ZM15.737,19.847c3.3,0,5.789,3.477,5.789,8.089s-2.489,8.088-5.789,8.088-5.789-3.477-5.789-8.088,2.488-8.089,5.789-8.089" transform="translate(0 -0.533)" fill="#302d2c"/>
    <rect id="Rectangle_230" data-name="Rectangle 230" width="29.486" height="2.978" transform="translate(0.994 12.587)" fill="#302d2c"/>
    <path id="Path_2664" data-name="Path 2664" d="M20.086,9.681l-4.729-.339A8.855,8.855,0,0,1,7.87,4.656L5.446,0,8.031.115,12.76.454A8.853,8.853,0,0,1,20.246,5.14L22.671,9.8Z" transform="translate(-0.436 0)" fill="#302d2c"/>
    <path id="Path_2665" data-name="Path 2665" d="M102.194,6.659H94.945V23.767c-7.542,5.279-22.264,4.783-24.51,4.674V12.856H88.677V9.877H62.584V32.343l.284.023c18.041,1.5,29.089-4.028,32.077-5.777v8.243h7.249v-11.9h8.566V19.783h-8.566Z" transform="translate(-5.01 -0.533)" fill="#302d2c"/>
    <path id="Path_2666" data-name="Path 2666" d="M166.158,34.753V31.64h-46.88v3.113h19.851v7.491h-15.7v3.113H130.5l1.6,9.962h-8.669v3.113h38.579V55.319h-7.871l1.6-9.962h6.276V42.244h-15.7V34.753ZM139.275,55.319l-1.6-9.962h10.875l-1.6,9.962Z" transform="translate(-9.549 -2.533)" fill="#302d2c"/>
    <path id="Path_2667" data-name="Path 2667" d="M123.8,27.095c9.918-1.989,15.845-6.027,19.115-9.148,3.269,3.12,9.2,7.159,19.115,9.148l.307.062.562-2.888-.272-.073c-6.157-1.651-10.645-4.387-13.331-8.124l-.077-.112c-.036-.051-.073-.1-.11-.163l-.09-.133a16.683,16.683,0,0,1-2.377-8.4l.01-.605h-7.472l.011.605a16.684,16.684,0,0,1-2.359,8.37l-.075.113c-.063.094-.124.189-.156.243l-.063.08c-2.692,3.74-7.177,6.474-13.334,8.125l-.271.073.562,2.888Z" transform="translate(-9.841 -0.533)" fill="#302d2c"/>
    <path id="Path_2668" data-name="Path 2668" d="M139.721,77.511a1.3,1.3,0,0,0-2.35.088l-2.913,6.976-3.528-7.027a1.3,1.3,0,0,0-2.354.087l-4.044,9.793.909,1.783L128.9,80.5l3.934,7.958-2.282,5.466h1.655L137.7,80.5l6.54,12.95a.864.864,0,0,0,.771.475h3.064Z" transform="translate(-9.97 -6.148)" fill="#302d2c"/>
    <path id="Path_2669" data-name="Path 2669" d="M112.268,77.6l-6.819,16.328H107.1L112.591,80.5l6.541,12.951a.863.863,0,0,0,.77.474h3.065l-8.349-16.416a1.3,1.3,0,0,0-2.35.088" transform="translate(-8.442 -6.149)" fill="#302d2c"/>
    <path id="Path_2670" data-name="Path 2670" d="M74.287,77.349,67.392,93.928h1.656l5.1-12.46,5.5,12.1a.63.63,0,0,0,.578.362H83.57L75.959,77.3a.934.934,0,0,0-1.672.044" transform="translate(-5.395 -6.149)" fill="#302d2c"/>
    <path id="Path_2671" data-name="Path 2671" d="M64.851,76.979,60.62,88.591,55.8,76.979H54.221L49.715,88.551,45.768,77.338a.6.6,0,0,0-.56-.359H41.886l6.1,16.794a.69.69,0,0,0,1.257-.03l4.71-12.048,5.058,12.078a.691.691,0,0,0,1.258-.03l6.119-16.763Z" transform="translate(-3.353 -6.163)" fill="#302d2c"/>
    <path id="Path_2672" data-name="Path 2672" d="M22.386,93.937h3.4V86.056H33.74v7.887h3.4V77h-3.4v7.372H25.776V77h-3.39Z" transform="translate(-1.792 -6.164)" fill="#302d2c"/>
    <path id="Path_2673" data-name="Path 2673" d="M100.738,79.649a10.691,10.691,0,0,0-5.4-2.4A17.345,17.345,0,0,0,91.849,77l-3.77,0V93.943h4.248A17.132,17.132,0,0,0,96.35,93.5a10.1,10.1,0,0,0,4.486-2.206,7.262,7.262,0,0,0,2.478-5.049,7.594,7.594,0,0,0-2.576-6.6m-1.529,9.228a5.6,5.6,0,0,1-4.06,3.791A10.99,10.99,0,0,1,91.615,93L91.61,77.948a10.422,10.422,0,0,1,3.372.335A6.09,6.09,0,0,1,99.27,82.49a10.2,10.2,0,0,1-.061,6.387" transform="translate(-7.051 -6.164)" fill="#302d2c"/>
  </g>
</svg>
