<svg width="175" height="24" viewBox="0 0 175 24" fill="none" xmlns="http://www.w3.org/2000/svg">
<path d="M13.5302 17.2759C13.4049 17.4347 13.2545 17.4933 13.0958 17.4431C12.937 17.3929 12.7449 17.2926 12.536 17.1505C12.2603 16.9582 11.9428 16.699 11.5752 16.3729C11.2159 16.0468 10.8316 15.6873 10.4389 15.2943C10.0462 14.9013 9.65349 14.4749 9.2608 14.0317C8.87647 13.5886 8.52555 13.1538 8.21642 12.7357C7.38927 13.7725 6.47021 14.7508 5.4509 15.6789C4.43158 16.607 3.34543 17.4431 2.18407 18.1873C2.04204 18.2876 1.92506 18.3294 1.83316 18.3127C1.74125 18.2959 1.63264 18.204 1.50731 18.0451L0.371022 16.515C0.245697 16.3394 0.19557 16.1973 0.237345 16.0886C0.27912 15.9883 0.371027 15.8796 0.513063 15.7876C1.44883 15.1438 2.34282 14.4247 3.17832 13.6304C4.01383 12.8361 4.79085 12.0083 5.49267 11.1304C6.1945 10.2608 6.81277 9.35782 7.3475 8.43809C7.88222 7.51836 8.29162 6.59862 8.58404 5.67889C8.6843 5.3528 8.55898 5.19394 8.21642 5.19394H2.32611C2.10052 5.19394 1.96684 5.15214 1.92506 5.06016C1.88329 4.96819 1.86658 4.85113 1.86658 4.68391V2.93642C1.86658 2.74411 1.9 2.61033 1.9752 2.53508C2.05039 2.45983 2.17572 2.42638 2.35117 2.42638H10.347C10.9736 2.42638 11.4749 2.56016 11.8342 2.83608C12.1934 3.112 12.3772 3.51334 12.3772 4.04846C12.3772 4.27421 12.3605 4.4916 12.3188 4.70063C12.277 4.90966 12.2352 5.11033 12.1851 5.311C11.9929 6.10531 11.7088 6.90799 11.3329 7.73575C10.9652 8.56351 10.5141 9.39127 9.99605 10.2357C10.3052 10.7207 10.6561 11.1889 11.0488 11.6404C11.4415 12.0919 11.8509 12.5267 12.2686 12.9364C12.6864 13.3461 13.1041 13.7307 13.5302 14.0735C13.948 14.4247 14.3323 14.7341 14.6665 15.01C14.9422 15.219 14.9339 15.4949 14.6415 15.8378L13.5052 17.2675L13.5302 17.2759ZM19.0863 23.898H16.6634C16.4879 23.898 16.3626 23.8729 16.2958 23.8143C16.2289 23.7558 16.1955 23.6304 16.1955 23.4381V1.09695C16.1955 0.921366 16.2289 0.795948 16.2958 0.737419C16.3626 0.67053 16.4796 0.637085 16.6634 0.637085H19.0863C19.2618 0.637085 19.3871 0.67053 19.454 0.737419C19.5208 0.804309 19.5459 0.921366 19.5459 1.09695V23.4297C19.5459 23.622 19.5125 23.7475 19.454 23.806C19.3871 23.8645 19.2702 23.8896 19.0863 23.8896" fill="#FF7F00"/>
<path d="M36.022 13.9481C35.2951 14.0903 34.5014 14.2157 33.6492 14.3244C32.797 14.4331 31.9113 14.5167 30.9923 14.5919C30.0816 14.6672 29.1625 14.7174 28.2518 14.7341C27.3411 14.7592 26.4638 14.7508 25.62 14.7257C25.2691 14.709 24.9766 14.6672 24.751 14.6003C24.5255 14.5334 24.3416 14.4414 24.208 14.3077C24.0659 14.1822 23.9824 14.0066 23.9323 13.7976C23.8821 13.5886 23.8571 13.3294 23.8571 13.02V8.2625C23.8571 7.74411 23.9657 7.39294 24.1746 7.20899C24.3834 7.02504 24.751 6.93307 25.2691 6.93307H30.5244C30.6664 6.93307 30.7583 6.91635 30.8001 6.87454C30.8419 6.83274 30.8586 6.74076 30.8586 6.59862V4.97655C30.8586 4.83441 30.8419 4.73407 30.8001 4.70063C30.7583 4.65882 30.6664 4.6421 30.5244 4.6421H24.4419C24.1161 4.6421 23.9573 4.4916 23.9573 4.18224V2.36785C23.9573 2.19227 23.9907 2.07521 24.0659 2.01668C24.1411 1.95816 24.2665 1.93307 24.4419 1.93307H32.563C32.9139 1.93307 33.2064 1.95816 33.4236 2.01668C33.6408 2.07521 33.8079 2.16719 33.9165 2.2926C34.0335 2.42638 34.1087 2.59361 34.1505 2.80264C34.1923 3.01167 34.209 3.27923 34.209 3.60531V7.80264C34.209 8.47989 34.0836 8.9314 33.833 9.15715C33.5823 9.3829 33.1646 9.49996 32.5881 9.49996H27.4999C27.291 9.49996 27.1824 9.60866 27.1824 9.81769V11.7073C27.1824 11.9163 27.2993 12.025 27.5416 12.025C28.962 12.0585 30.3573 12.0167 31.7192 11.8996C33.081 11.7826 34.4095 11.6237 35.7045 11.4147C35.8633 11.3812 35.9719 11.3896 36.022 11.4398C36.0721 11.4899 36.1056 11.5735 36.139 11.7073L36.4064 13.4548C36.4398 13.6304 36.4231 13.7558 36.3729 13.8143C36.3144 13.8812 36.1975 13.923 36.022 13.9565M41.2523 23.505H28.0513C27.3578 23.505 26.8983 23.3879 26.6811 23.1454C26.4638 22.903 26.3552 22.4431 26.3552 21.7658V17.0836C26.3552 16.7575 26.5223 16.5986 26.8649 16.5986H29.2377C29.5636 16.5986 29.7223 16.7575 29.7223 17.0836V20.3779C29.7223 20.6204 29.8476 20.7458 30.1066 20.7458H41.2523C41.386 20.7458 41.4946 20.7709 41.6032 20.8294C41.7035 20.8879 41.7619 21.005 41.7619 21.1806V23.0702C41.7619 23.2959 41.7118 23.4297 41.6032 23.4548C41.4946 23.4883 41.3776 23.505 41.2523 23.505ZM43.7755 10.7959H40.7677V16.8327C40.7677 17.0083 40.7426 17.1337 40.6841 17.1923C40.6256 17.2592 40.5087 17.2926 40.3332 17.2926H37.8852C37.7097 17.2926 37.5844 17.2592 37.5092 17.1923C37.434 17.1254 37.4006 17.0083 37.4006 16.8327V1.09695C37.4006 0.787587 37.5593 0.637085 37.8852 0.637085H40.3332C40.6256 0.637085 40.7677 0.787587 40.7677 1.09695V8.02839H43.7755C43.9008 8.02839 44.0178 8.04511 44.1181 8.07856C44.2183 8.112 44.2601 8.22906 44.2601 8.43809V10.3528C44.2601 10.5284 44.2183 10.6454 44.1264 10.704C44.0345 10.7625 43.9175 10.7876 43.7755 10.7876" fill="#FF7F00"/>
<path d="M57.8705 17.2759C57.7452 17.4347 57.5948 17.4933 57.436 17.4431C57.2773 17.3929 57.0851 17.2926 56.8763 17.1505C56.6005 16.9582 56.283 16.699 55.9154 16.3729C55.5561 16.0468 55.1718 15.6873 54.7791 15.2943C54.3864 14.9013 53.9938 14.4749 53.6011 14.0317C53.2167 13.5886 52.8658 13.1538 52.5567 12.7357C51.7295 13.7725 50.8105 14.7508 49.7912 15.6789C48.7719 16.607 47.6857 17.4431 46.516 18.1873C46.3739 18.2876 46.257 18.3294 46.1651 18.3127C46.0732 18.2959 45.9646 18.204 45.8392 18.0451L44.7029 16.515C44.5776 16.3394 44.5275 16.1973 44.5693 16.0886C44.611 15.9883 44.7029 15.8796 44.845 15.7876C45.7807 15.1438 46.6664 14.4247 47.5102 13.6304C48.3457 12.8361 49.1228 12.0083 49.8246 11.1304C50.5264 10.2608 51.1447 9.35782 51.6794 8.43809C52.2141 7.51836 52.6235 6.59862 52.9159 5.67889C53.0162 5.3528 52.8909 5.19394 52.5483 5.19394H46.658C46.4324 5.19394 46.2988 5.15214 46.257 5.06016C46.2152 4.96819 46.1985 4.85113 46.1985 4.68391V2.93642C46.1985 2.74411 46.2319 2.61033 46.3071 2.53508C46.3823 2.45983 46.5076 2.42638 46.6831 2.42638H54.6789C55.3055 2.42638 55.8068 2.56016 56.1661 2.83608C56.5253 3.112 56.7092 3.51334 56.7092 4.04846C56.7092 4.27421 56.6924 4.4916 56.6507 4.70063C56.6089 4.90966 56.5671 5.11033 56.517 5.311C56.3248 6.10531 56.0407 6.90799 55.6648 7.73575C55.2971 8.56351 54.846 9.39127 54.328 10.2357C54.6371 10.7207 54.988 11.1889 55.3807 11.6404C55.7734 12.0919 56.1828 12.5267 56.6005 12.9364C57.0183 13.3461 57.436 13.7307 57.8621 14.0735C58.2799 14.4247 58.6642 14.7341 58.9984 15.01C59.2741 15.219 59.2658 15.4949 58.9734 15.8378L57.8371 17.2675L57.8705 17.2759ZM63.4266 23.898H61.0036C60.8282 23.898 60.7029 23.8729 60.6444 23.8143C60.5775 23.7558 60.5441 23.6304 60.5441 23.4381V1.09695C60.5441 0.921366 60.5775 0.795948 60.6444 0.737419C60.7112 0.67053 60.8282 0.637085 61.0036 0.637085H63.4266C63.6021 0.637085 63.7274 0.67053 63.7942 0.737419C63.8611 0.804309 63.8861 0.921366 63.8861 1.09695V23.4297C63.8861 23.622 63.8527 23.7475 63.7942 23.806C63.7274 23.8645 63.6104 23.8896 63.4266 23.8896" fill="#FF7F00"/>
<path d="M87.7481 19.8177H66.9357C66.7268 19.8177 66.5932 19.7676 66.5347 19.6756C66.4762 19.5753 66.4511 19.4582 66.4511 19.3077V17.5602C66.4511 17.3846 66.4762 17.2508 66.5347 17.1756C66.5932 17.092 66.7268 17.0585 66.9357 17.0585H71.6647V10.5619C71.6647 10.3863 71.6981 10.2609 71.7649 10.194C71.8318 10.1271 71.9571 10.102 72.1493 10.102H74.5472C74.7393 10.102 74.873 10.1355 74.9315 10.194C74.9983 10.2609 75.0318 10.3779 75.0318 10.5619V17.0585H76.9701V10.5619C76.9701 10.3863 77.0035 10.2609 77.0704 10.194C77.1372 10.1271 77.2626 10.102 77.4547 10.102H79.8276C80.0364 10.102 80.1785 10.1355 80.2369 10.194C80.3038 10.2609 80.3372 10.3779 80.3372 10.5619V17.0585H87.7481C88.0907 17.0585 88.2578 17.2258 88.2578 17.5686V19.3161C88.2578 19.6589 88.0907 19.8261 87.7481 19.8261M84.991 13.9482C84.9576 14.1906 84.8991 14.3328 84.8239 14.383C84.7403 14.4331 84.5816 14.4415 84.3393 14.408L82.2087 14.1906C81.9497 14.1572 81.8077 14.082 81.7826 13.9649C81.7576 13.8478 81.7659 13.7057 81.791 13.5385C81.8996 12.9532 81.9999 12.3261 82.0834 11.6572C82.167 10.9883 82.2255 10.311 82.2756 9.61707C82.3257 8.93145 82.3591 8.24583 82.3759 7.55185C82.3926 6.86623 82.4009 6.2057 82.4009 5.57861C82.4009 5.33613 82.3675 5.16055 82.2923 5.06021C82.2171 4.95988 81.9999 4.90135 81.6239 4.90135H69.8767C69.7179 4.90135 69.5843 4.88463 69.4923 4.84282C69.3921 4.80101 69.3503 4.6756 69.3503 4.46657V2.55185C69.3503 2.37626 69.4004 2.25921 69.4923 2.20904C69.5926 2.15887 69.7179 2.13379 69.8767 2.13379H84.0469C84.6317 2.13379 85.0578 2.26757 85.3419 2.53513C85.626 2.80269 85.768 3.27927 85.768 3.95653C85.768 6.08864 85.6928 7.99499 85.5508 9.66723C85.4087 11.3395 85.2166 12.7692 84.991 13.9482Z" fill="#FF7F00"/>
<path d="M103.882 23.1204H101.626C101.45 23.1204 101.325 23.0953 101.267 23.0451C101.2 22.9949 101.166 22.8695 101.166 22.6605V11.4314H99.4202C99.3032 12.3177 99.1027 13.1538 98.8019 13.9314C98.5011 14.709 98.1252 15.3779 97.674 15.9464C97.2228 16.515 96.7048 16.9582 96.1116 17.2926C95.5184 17.6271 94.8834 17.7859 94.1816 17.7859C93.3878 17.7859 92.6777 17.5852 92.0343 17.1923C91.3993 16.7993 90.8563 16.2475 90.4134 15.5535C89.9706 14.8595 89.6281 14.0317 89.3941 13.0786C89.1602 12.1254 89.0432 11.097 89.0432 10.0016C89.0432 8.77254 89.1685 7.67722 89.4192 6.71568C89.6698 5.75414 90.0291 4.9431 90.4886 4.28257C90.9482 3.62203 91.4912 3.112 92.1095 2.75247C92.7361 2.39294 93.4213 2.21735 94.1816 2.21735C94.875 2.21735 95.5267 2.36785 96.1366 2.65214C96.7382 2.94478 97.2813 3.3712 97.7492 3.92304C98.2171 4.48324 98.6014 5.1605 98.9022 5.96317C99.203 6.76585 99.4035 7.66886 99.4954 8.68892H101.166V1.51501C101.166 1.33943 101.2 1.21401 101.267 1.15548C101.334 1.08859 101.45 1.05515 101.626 1.05515H103.882C104.191 1.05515 104.341 1.20565 104.341 1.51501V22.6605C104.341 22.8528 104.308 22.9782 104.241 23.0367C104.174 23.0953 104.057 23.1204 103.873 23.1204M94.215 5.07688C93.8307 5.07688 93.5048 5.22739 93.2458 5.53675C92.9868 5.84611 92.7779 6.23909 92.6275 6.72404C92.4771 7.20899 92.3602 7.74411 92.285 8.32103C92.2098 8.90631 92.1764 9.46651 92.1764 10.0184C92.1764 10.5702 92.2098 11.1053 92.285 11.6906C92.3602 12.2759 92.4771 12.8026 92.6359 13.2876C92.7946 13.7725 93.0035 14.1739 93.2625 14.4832C93.5215 14.801 93.8307 14.9598 94.2066 14.9598C94.5492 14.9598 94.85 14.8177 95.1173 14.5334C95.3847 14.2491 95.6103 13.8812 95.8108 13.4214C96.003 12.9615 96.1534 12.4264 96.2453 11.8327C96.3455 11.2391 96.3873 10.6287 96.3873 10.01C96.3873 9.36618 96.3372 8.74745 96.2453 8.15381C96.145 7.56016 96.003 7.04177 95.8192 6.5819C95.6354 6.12203 95.4014 5.75414 95.1257 5.47822C94.85 5.2023 94.5408 5.06852 94.2066 5.06852M108.803 23.9147H106.405C106.23 23.9147 106.104 23.8812 106.046 23.8143C105.979 23.7474 105.945 23.6304 105.945 23.4464V1.09695C105.945 0.921366 105.979 0.795948 106.054 0.737419C106.129 0.67053 106.255 0.637085 106.43 0.637085H108.803C108.978 0.637085 109.104 0.67053 109.162 0.737419C109.229 0.804309 109.262 0.921366 109.262 1.09695V23.4548C109.262 23.6304 109.229 23.7558 109.162 23.8227C109.095 23.8896 108.978 23.923 108.803 23.923" fill="#FF7F00"/>
<path d="M132.088 19.7675H111.276C111.067 19.7675 110.933 19.7174 110.875 19.6254C110.816 19.5251 110.791 19.408 110.791 19.2659V17.5184C110.791 17.3428 110.816 17.209 110.875 17.1337C110.933 17.0501 111.067 17.0083 111.276 17.0083H132.088C132.431 17.0083 132.598 17.1756 132.598 17.5184V19.2659C132.598 19.6087 132.431 19.7759 132.088 19.7759M113.841 13.4632C113.615 13.5468 113.465 13.5719 113.381 13.5384C113.298 13.505 113.214 13.413 113.114 13.2458L112.17 11.5485C111.961 11.1806 112.003 10.9381 112.287 10.821C113.465 10.3863 114.501 9.88458 115.403 9.31602C116.297 8.74746 117.066 8.11201 117.693 7.4013C118.319 6.6906 118.821 5.89629 119.18 5.02672C119.539 4.15716 119.781 3.1789 119.898 2.09194C119.932 1.91636 119.982 1.78258 120.04 1.70732C120.107 1.62371 120.249 1.59863 120.475 1.60699L122.773 1.74913C123.065 1.78258 123.24 1.83274 123.291 1.90799C123.349 1.98324 123.357 2.13375 123.324 2.3595C123.291 2.811 123.24 3.23743 123.182 3.64712C123.408 4.45816 123.767 5.21067 124.26 5.90465C124.753 6.59863 125.338 7.23408 126.014 7.79428C126.691 8.36284 127.435 8.85615 128.245 9.28258C129.056 9.709 129.891 10.0518 130.768 10.311C130.977 10.3779 131.094 10.4531 131.111 10.5535C131.128 10.6538 131.086 10.7876 130.994 10.9632L130.125 12.7608C130.058 12.8612 130.025 12.9281 130 12.9782C129.966 13.0451 129.933 13.0786 129.899 13.0786C129.833 13.1287 129.707 13.1287 129.515 13.0786C128.805 12.9197 128.078 12.6605 127.343 12.3177C126.607 11.9665 125.897 11.5652 125.195 11.097C124.502 10.6287 123.859 10.0936 123.257 9.49997C122.656 8.90632 122.146 8.26251 121.703 7.58525C120.868 8.95649 119.756 10.1438 118.386 11.1388C117.016 12.1337 115.495 12.9113 113.833 13.4799" fill="#FF7F00"/>
<path d="M138.63 13.8311C137.837 13.8311 137.11 13.6889 136.441 13.3963C135.773 13.1036 135.197 12.7023 134.712 12.1839C134.227 11.6655 133.851 11.0384 133.576 10.3026C133.3 9.56685 133.166 8.75581 133.166 7.86953C133.166 6.98324 133.3 6.22237 133.576 5.50331C133.851 4.78424 134.227 4.16551 134.712 3.63876C135.197 3.112 135.773 2.7023 136.441 2.41802C137.11 2.12538 137.845 1.98324 138.63 1.98324C139.416 1.98324 140.159 2.12538 140.836 2.41802C141.513 2.71066 142.098 3.12036 142.582 3.63876C143.067 4.16551 143.443 4.78424 143.719 5.50331C143.994 6.22237 144.128 7.00832 144.128 7.86953C144.128 8.73073 143.994 9.57521 143.719 10.3026C143.443 11.0384 143.067 11.6655 142.582 12.1839C142.098 12.7023 141.513 13.1036 140.836 13.3963C140.159 13.6889 139.424 13.8311 138.63 13.8311ZM138.63 4.83441C137.987 4.83441 137.444 5.11869 137.01 5.68725C136.575 6.25581 136.358 6.9916 136.358 7.89461C136.358 8.79762 136.575 9.58357 137.01 10.1605C137.444 10.7374 137.987 11.0217 138.63 11.0217C139.307 11.0217 139.859 10.7374 140.276 10.1605C140.694 9.58357 140.903 8.83106 140.903 7.89461C140.903 7.00832 140.694 6.27254 140.276 5.70397C139.859 5.12705 139.307 4.84277 138.63 4.84277M153.703 23.505H139.75C139.407 23.505 139.132 23.4715 138.915 23.4214C138.697 23.3628 138.53 23.2709 138.405 23.1454C138.28 23.02 138.196 22.8361 138.154 22.6103C138.104 22.3846 138.079 22.1003 138.079 21.7575V16.3478C138.079 16.005 138.238 15.8378 138.564 15.8378H140.962C141.287 15.8378 141.446 16.005 141.446 16.3478V20.3695C141.446 20.612 141.571 20.7374 141.83 20.7374H153.703C153.828 20.7374 153.945 20.7625 154.046 20.821C154.146 20.8796 154.188 20.9966 154.188 21.1722V23.0618C154.188 23.2876 154.137 23.413 154.046 23.4464C153.945 23.4799 153.837 23.4966 153.703 23.4966M153.143 16.7658H150.745C150.57 16.7658 150.445 16.7324 150.386 16.6655C150.319 16.5986 150.286 16.4816 150.286 16.306V10.0016H148.54V15.7959C148.54 15.9715 148.506 16.0886 148.439 16.1471C148.372 16.2056 148.255 16.2307 148.08 16.2307H145.799C145.624 16.2307 145.498 16.2056 145.423 16.1471C145.348 16.0886 145.315 15.9715 145.315 15.7959V1.51501C145.315 1.3227 145.348 1.18892 145.423 1.1304C145.498 1.06351 145.624 1.03006 145.799 1.03006H148.08C148.389 1.03006 148.54 1.18892 148.54 1.51501V7.25916H150.286V1.09695C150.286 0.787587 150.445 0.637085 150.77 0.637085H153.143C153.319 0.637085 153.444 0.67053 153.511 0.737419C153.578 0.804309 153.611 0.921366 153.611 1.09695V16.2976C153.611 16.4732 153.578 16.5986 153.511 16.6572C153.444 16.724 153.327 16.7575 153.143 16.7575" fill="#FF7F00"/>
<path d="M162.476 18.9481C162.284 19.1739 162.125 19.2826 162.016 19.2658C161.899 19.2491 161.766 19.1739 161.607 19.0485L160.128 17.8612C159.953 17.719 159.869 17.602 159.877 17.51C159.877 17.418 159.969 17.2759 160.128 17.0585C160.679 16.3478 161.189 15.5535 161.657 14.6839C161.381 14.3913 161.114 14.0652 160.847 13.7056C160.579 13.3378 160.337 12.9615 160.111 12.5769C159.401 14.1655 158.474 15.6454 157.329 17.0418C157.17 17.2341 157.037 17.326 156.928 17.3177C156.819 17.3177 156.702 17.2508 156.577 17.1337L155.098 15.9464C154.965 15.8378 154.898 15.7291 154.881 15.6454C154.864 15.5535 154.923 15.4281 155.048 15.2692C155.775 14.3829 156.385 13.4632 156.87 12.5184C157.354 11.5735 157.738 10.5786 158.023 9.53341C158.307 8.48826 158.507 7.37622 158.632 6.19729C158.749 5.01836 158.816 3.73073 158.816 2.34277C158.816 1.96652 158.992 1.78257 159.351 1.78257L161.339 1.83274C161.707 1.86618 161.899 2.04177 161.899 2.36785C161.899 4.63374 161.732 6.66551 161.39 8.47989C161.582 9.07354 161.824 9.6421 162.108 10.1689C162.392 10.6956 162.693 11.1722 163.019 11.6153C163.988 8.88123 164.473 5.79595 164.473 2.35113C164.473 2.17555 164.523 2.03341 164.615 1.92471C164.715 1.82438 164.857 1.77421 165.049 1.79093L166.988 1.89127C167.338 1.92471 167.522 2.09193 167.522 2.4013C167.522 4.68391 167.33 6.82438 166.937 8.83106C167.096 9.54177 167.322 10.2107 167.606 10.8294C167.89 11.4565 168.199 12.0334 168.525 12.5602C168.859 13.0953 169.202 13.5719 169.552 13.9983C169.903 14.4247 170.229 14.801 170.522 15.1271C170.714 15.3361 170.814 15.4866 170.822 15.5618C170.822 15.6454 170.747 15.7709 170.572 15.9464L169.335 17.2341C169.143 17.4431 168.976 17.5267 168.826 17.4765C168.684 17.4264 168.466 17.2675 168.199 16.9916C167.748 16.5735 167.297 16.0217 166.854 15.3444C166.411 14.6672 166.018 14.0066 165.676 13.3545C164.865 15.4866 163.813 17.3511 162.501 18.9565M174.54 23.898H172.243C172.067 23.898 171.942 23.8729 171.875 23.8143C171.808 23.7558 171.775 23.6304 171.775 23.4381V1.09695C171.775 0.921366 171.808 0.795948 171.875 0.737419C171.942 0.67053 172.059 0.637085 172.243 0.637085H174.54C174.716 0.637085 174.841 0.67053 174.9 0.737419C174.967 0.804309 175 0.921366 175 1.09695V23.4297C175 23.622 174.967 23.7475 174.9 23.806C174.833 23.8645 174.716 23.8896 174.54 23.8896" fill="#FF7F00"/>
</svg>
